<svg xmlns="http://www.w3.org/2000/svg" width="104" height="19" viewBox="0 0 104 19">
    <g fill="#07C0CA" fill-rule="evenodd">
        <text font-family="Montserrat-Bold, Montserrat" font-size="17.5" font-weight="bold" letter-spacing="-.422" transform="translate(0 -3)">
            <tspan x="24.477" y="17">wisetack</tspan>
        </text>
        <path fill-rule="nonzero" d="M15.424 13.073l3.034-7.92-5.07 1.367v-.002L2.99 9.318l6.393 1.925v-.002l.652.198.566.17v.001l4.823 1.463zm-1.828.791l-3.703-1.123-2.118 3.384 5.82-2.26zm5.432-10.198l1.188-.317-3.021-1.062-2.137 2.45 3.97-1.07zm-10.413 8.69L.457 9.901c-.238-.11-.238-.11-.382-.312-.09-.233-.09-.233-.05-.49.15-.297.15-.297.45-.437l12.35-3.326 3.687-4.224c.311-.235.311-.235.698-.184l5.4 1.897c.231.12.231.12.366.329.079.236.079.236.027.492-.153.277-.153.277-.441.409l-2.567.685-3.507 9.155c-.132.237-.132.237-.369.37l-9.684 3.762c-.254.06-.254.06-.493-.01-.213-.129-.213-.129-.34-.357-.064-.296-.064-.296.054-.575l2.959-4.729z"/>
    </g>
</svg>
